<svg xmlns="http://www.w3.org/2000/svg" version="1.1" xmlns:xlink="http://www.w3.org/1999/xlink" viewBox="0 0 10.779986445459048 3.128329658349673"><g transform="matrix(1,0,0,1,1.945657431713899,0.6456648291748366)"><g clip-path="url(#SvgjsClipPath1001)"><g clip-path="url(#SvgjsClipPath10005a729cc1-62f0-4ae3-a00a-aa4d79b0693a)"><path d=" M 6.696155286031249 -0.13597111200000006 L 5.600300470031249 -0.13597111200000006 L 5.600300470031249 0.959883704 L 6.696155286031249 0.959883704 Z M 5.55587158203125 -0.18040000000000012 L 5.55587158203125 1.0043125919999998 L 6.740584174031249 1.0043125919999998 L 6.740584174031249 -0.18040000000000012 Z" fill="url(#gradient-557f6a29-661d-4bf5-be0f-85c665dc0db3_0)" transform="matrix(1,0,0,1,0,0)" fill-rule="evenodd"></path></g><g clip-path="url(#SvgjsClipPath10005a729cc1-62f0-4ae3-a00a-aa4d79b0693a)"><path d=" M 6.84424269403125 0.012116295999999915 L 5.74838787803125 0.012116295999999915 L 5.74838787803125 1.107971112 L 6.84424269403125 1.107971112 Z M 5.703958990031249 -0.03231259200000006 L 5.703958990031249 1.1524 L 6.888671582031249 1.1524 L 6.888671582031249 -0.03231259200000006 Z" fill="url(#gradient-557f6a29-661d-4bf5-be0f-85c665dc0db3_1)" transform="matrix(1,0,0,1,0,0)" fill-rule="evenodd"></path></g><path d=" M 6.200563407476855 0.15689588199139518 C 6.208209053860792 0.15689588199139518 6.257359637757535 0.1558036467936898 6.348015159167082 0.15361917639827904 C 6.360575863940694 0.15361917639827904 6.369177216122624 0.15839770538824008 6.373819215712872 0.1679547633681622 C 6.374911450910577 0.17068535136242569 6.37545756850943 0.1738255275558287 6.37545756850943 0.17737529194837115 C 6.37545756850943 0.18092505634091371 6.373409627513732 0.18454308543331283 6.369313745522337 0.18822937922556854 C 6.365217863530942 0.1919156730178242 6.357572217147005 0.19362229051423885 6.346376806370524 0.19334923171481253 C 6.335181395594044 0.1930761729153862 6.324327308316847 0.19266658471624665 6.313814544538932 0.19212046711739394 C 6.303301780761018 0.19157434951854127 6.293539928681526 0.19116476131940174 6.2845289883004565 0.19089170251997534 C 6.268418519134302 0.1903455849211227 6.254629049763271 0.19020905552140954 6.243160580187365 0.19048211432083587 C 6.240976109791954 0.2532856381888957 6.239883874594248 0.3214138086457693 6.239883874594248 0.3948666256914567 C 6.239883874594248 0.4735075599262446 6.239952139294106 0.5273684081130916 6.240088668693819 0.5564491702519976 C 6.2402251980935315 0.5855299323909036 6.2405665215928146 0.6133136652325343 6.241112639191667 0.63980036877689 C 6.241931815589946 0.707518951034624 6.242750991988226 0.757761770129072 6.243570168386505 0.7905288260602336 C 6.2438432271859305 0.7998128252407293 6.241727021490377 0.8067075599262447 6.237221551299842 0.8112130301167794 C 6.232716081109307 0.8157185003073141 6.227801022719633 0.8179712354025814 6.222476376130819 0.8179712354025814 C 6.217151729542005 0.8179712354025814 6.211963612352905 0.8158550297070272 6.206912024563517 0.8116226183159189 C 6.20186043677413 0.8073902069248106 6.199334642879436 0.8010415898381479 6.199334642879436 0.792576767055931 L 6.198925054680297 0.7389207129686539 L 6.203020936671692 0.34776398279041176 C 6.203020936671692 0.27485728334357706 6.2020652308737 0.22242999385371842 6.200153819277715 0.19048211432083587 C 6.185681702908119 0.19020905552140954 6.168478998544259 0.19075517312026224 6.148545706186136 0.19212046711739394 C 6.12506264943547 0.19375881991395205 6.10806473917118 0.194919319811514 6.097551975393265 0.19560196681007982 C 6.087039211615351 0.1962846138086457 6.0795983593309835 0.19457799631223105 6.075229418540162 0.19048211432083587 C 6.07086047774934 0.18638623232944065 6.068676007353929 0.1816759680393362 6.068676007353929 0.17635132145052243 C 6.068676007353929 0.1710266748617086 6.07086047774934 0.1657702929727514 6.075229418540162 0.1605821757836508 C 6.0795983593309835 0.15539405859455022 6.086629623416211 0.1530047940995697 6.0963232107958465 0.1534143822987093 C 6.1060167981754825 0.15382397049784877 6.114413356257843 0.1541652939971317 6.121512885042927 0.15443835279655801 C 6.128612413828012 0.15471141159598442 6.134824501514962 0.15498447039541077 6.1401491481037755 0.1552575291948371 C 6.145473794692589 0.15553058799426342 6.150184058982694 0.15580364679368974 6.154279940974089 0.1560767055931161 C 6.158375822965485 0.1563497643925425 6.162539969656736 0.15655455849211228 6.166772381047845 0.15669108789182543 C 6.171004792438953 0.1568276172915386 6.17585158612877 0.15689588199139518 6.181312762117297 0.15689588199139518 L 6.200563407476855 0.15689588199139518" fill="url(#gradient-9b540b95-febb-4e12-9824-77eeaf2996a9)" transform="matrix(1,0,0,1,0,0)" fill-rule="nonzero"></path></g><g><path d=" M 0.592 0.07600000000000007 Q 0.588 0.11399999999999999 0.5865 0.14949999999999997 Q 0.585 0.18500000000000005 0.585 0.20400000000000007 Q 0.585 0.22799999999999998 0.586 0.249 Q 0.587 0.27 0.588 0.28600000000000003 L 0.5650000000000001 0.28600000000000003 Q 0.558 0.21599999999999997 0.546 0.1755 Q 0.534 0.135 0.504 0.11699999999999999 Q 0.47400000000000003 0.09899999999999998 0.41100000000000003 0.09899999999999998 L 0.357 0.09899999999999998 L 0.357 0.668 Q 0.357 0.7080000000000001 0.3645 0.728 Q 0.372 0.748 0.394 0.755 Q 0.41600000000000004 0.762 0.458 0.764 L 0.458 0.784 Q 0.432 0.782 0.392 0.7815000000000001 Q 0.352 0.781 0.311 0.781 Q 0.266 0.781 0.2265 0.7815000000000001 Q 0.187 0.782 0.163 0.784 L 0.163 0.764 Q 0.20500000000000002 0.762 0.227 0.755 Q 0.249 0.748 0.2565 0.728 Q 0.264 0.7080000000000001 0.264 0.668 L 0.264 0.09899999999999998 L 0.21 0.09899999999999998 Q 0.148 0.09899999999999998 0.11750000000000001 0.11699999999999999 Q 0.08700000000000001 0.135 0.075 0.1755 Q 0.063 0.21599999999999997 0.056 0.28600000000000003 L 0.033 0.28600000000000003 Q 0.035 0.27 0.035500000000000004 0.249 Q 0.036000000000000004 0.22799999999999998 0.036000000000000004 0.20400000000000007 Q 0.036000000000000004 0.18500000000000005 0.0345 0.14949999999999997 Q 0.033 0.11399999999999999 0.029 0.07600000000000007 Q 0.07100000000000001 0.07700000000000007 0.1205 0.07800000000000007 Q 0.17 0.07900000000000007 0.22 0.07900000000000007 Q 0.27 0.07900000000000007 0.311 0.07900000000000007 Q 0.352 0.07900000000000007 0.4015 0.07900000000000007 Q 0.451 0.07900000000000007 0.501 0.07800000000000007 Q 0.551 0.07700000000000007 0.592 0.07600000000000007 M 0.9609716796875001 0.255 Q 0.9879716796875 0.255 1.0084716796875 0.266 Q 1.0289716796875 0.277 1.0404716796875 0.29450000000000004 Q 1.0519716796875 0.312 1.0519716796875 0.334 Q 1.0519716796875 0.35900000000000004 1.0364716796875 0.378 Q 1.0209716796875 0.397 0.9949716796875 0.397 Q 0.9739716796875 0.397 0.9579716796875 0.3835 Q 0.9419716796875 0.37 0.9419716796875 0.34500000000000003 Q 0.9419716796875 0.326 0.9524716796875 0.3125 Q 0.9629716796875001 0.29900000000000004 0.9759716796875 0.29100000000000004 Q 0.9689716796875001 0.281 0.9549716796875001 0.281 Q 0.9239716796874999 0.281 0.8979716796875 0.29950000000000004 Q 0.8719716796875 0.318 0.8539716796875 0.34700000000000003 Q 0.8359716796875 0.376 0.8259716796875001 0.40850000000000003 Q 0.8159716796875001 0.441 0.8159716796875001 0.46900000000000003 L 0.8159716796875001 0.681 Q 0.8159716796875001 0.73 0.8444716796875 0.7465 Q 0.8729716796875 0.763 0.9219716796874999 0.763 L 0.9219716796874999 0.784 Q 0.8989716796875 0.783 0.8569716796875 0.7815000000000001 Q 0.8149716796875 0.78 0.7679716796875 0.78 Q 0.7339716796875 0.78 0.7004716796875 0.7815000000000001 Q 0.6669716796875 0.783 0.6499716796875 0.784 L 0.6499716796875 0.763 Q 0.6909716796875001 0.763 0.7084716796875 0.748 Q 0.7259716796875 0.733 0.7259716796875 0.6910000000000001 L 0.7259716796875 0.378 Q 0.7259716796875 0.333 0.7099716796875 0.3115 Q 0.6939716796875 0.29000000000000004 0.6499716796875 0.29000000000000004 L 0.6499716796875 0.269 Q 0.6819716796874999 0.272 0.7119716796875 0.272 Q 0.7409716796875 0.272 0.7674716796875 0.26850000000000007 Q 0.7939716796875 0.265 0.8159716796875001 0.258 L 0.8159716796875001 0.383 Q 0.8269716796875 0.35400000000000004 0.8474716796875 0.3245 Q 0.8679716796875 0.29500000000000004 0.8969716796875 0.275 Q 0.9259716796874999 0.255 0.9609716796875001 0.255 M 1.31795947265625 0.255 Q 1.4059594726562499 0.255 1.45545947265625 0.3085 Q 1.50495947265625 0.36200000000000004 1.50495947265625 0.47500000000000003 L 1.15195947265625 0.47500000000000003 L 1.15095947265625 0.456 L 1.40895947265625 0.456 Q 1.41095947265625 0.40700000000000003 1.40095947265625 0.36550000000000005 Q 1.39095947265625 0.324 1.3694594726562501 0.29900000000000004 Q 1.34795947265625 0.274 1.31395947265625 0.274 Q 1.26795947265625 0.274 1.23245947265625 0.32 Q 1.19695947265625 0.36600000000000005 1.1899594726562501 0.466 L 1.19295947265625 0.47000000000000003 Q 1.19095947265625 0.48500000000000004 1.1899594726562501 0.503 Q 1.18895947265625 0.521 1.18895947265625 0.539 Q 1.18895947265625 0.607 1.21095947265625 0.656 Q 1.23295947265625 0.7050000000000001 1.26845947265625 0.7305 Q 1.30395947265625 0.756 1.34195947265625 0.756 Q 1.37195947265625 0.756 1.39895947265625 0.7465 Q 1.42595947265625 0.737 1.44895947265625 0.7150000000000001 Q 1.47195947265625 0.6930000000000001 1.48895947265625 0.656 L 1.50895947265625 0.664 Q 1.49795947265625 0.6970000000000001 1.47295947265625 0.728 Q 1.4479594726562501 0.759 1.4099594726562499 0.7785000000000001 Q 1.37195947265625 0.798 1.32195947265625 0.798 Q 1.24995947265625 0.798 1.19845947265625 0.765 Q 1.14695947265625 0.732 1.11945947265625 0.6735 Q 1.09195947265625 0.615 1.09195947265625 0.539 Q 1.09195947265625 0.451 1.11995947265625 0.3875 Q 1.14795947265625 0.324 1.19895947265625 0.28950000000000004 Q 1.24995947265625 0.255 1.31795947265625 0.255 M 1.91694091796875 0.255 Q 1.95494091796875 0.255 1.98044091796875 0.265 Q 2.00594091796875 0.275 2.02294091796875 0.29300000000000004 Q 2.04194091796875 0.313 2.04994091796875 0.343 Q 2.0579409179687502 0.373 2.0579409179687502 0.42400000000000004 L 2.0579409179687502 0.6910000000000001 Q 2.0579409179687502 0.733 2.07544091796875 0.748 Q 2.09294091796875 0.763 2.13394091796875 0.763 L 2.13394091796875 0.784 Q 2.11694091796875 0.783 2.0819409179687502 0.7815000000000001 Q 2.04694091796875 0.78 2.01394091796875 0.78 Q 1.98094091796875 0.78 1.94944091796875 0.7815000000000001 Q 1.91794091796875 0.783 1.90194091796875 0.784 L 1.90194091796875 0.763 Q 1.9379409179687501 0.763 1.95294091796875 0.748 Q 1.96794091796875 0.733 1.96794091796875 0.6910000000000001 L 1.96794091796875 0.402 Q 1.96794091796875 0.371 1.96294091796875 0.34500000000000003 Q 1.9579409179687501 0.319 1.94044091796875 0.30300000000000005 Q 1.92294091796875 0.28700000000000003 1.88694091796875 0.28700000000000003 Q 1.84494091796875 0.28700000000000003 1.81344091796875 0.311 Q 1.78194091796875 0.335 1.76444091796875 0.3765 Q 1.74694091796875 0.41800000000000004 1.74694091796875 0.46900000000000003 L 1.74694091796875 0.6910000000000001 Q 1.74694091796875 0.733 1.76194091796875 0.748 Q 1.77694091796875 0.763 1.8129409179687501 0.763 L 1.8129409179687501 0.784 Q 1.79694091796875 0.783 1.76544091796875 0.7815000000000001 Q 1.73394091796875 0.78 1.70094091796875 0.78 Q 1.66794091796875 0.78 1.63294091796875 0.7815000000000001 Q 1.59794091796875 0.783 1.58094091796875 0.784 L 1.58094091796875 0.763 Q 1.62194091796875 0.763 1.63944091796875 0.748 Q 1.65694091796875 0.733 1.65694091796875 0.6910000000000001 L 1.65694091796875 0.378 Q 1.65694091796875 0.333 1.64094091796875 0.3115 Q 1.62494091796875 0.29000000000000004 1.58094091796875 0.29000000000000004 L 1.58094091796875 0.269 Q 1.61294091796875 0.272 1.64294091796875 0.272 Q 1.67194091796875 0.272 1.69844091796875 0.26850000000000007 Q 1.72494091796875 0.265 1.74694091796875 0.258 L 1.74694091796875 0.376 Q 1.77294091796875 0.308 1.81944091796875 0.2815 Q 1.86594091796875 0.255 1.91694091796875 0.255 M 2.63292578125 0 L 2.63292578125 0.675 Q 2.63292578125 0.72 2.64942578125 0.7415 Q 2.66592578125 0.763 2.70892578125 0.763 L 2.70892578125 0.784 Q 2.67792578125 0.781 2.64692578125 0.781 Q 2.61792578125 0.781 2.59142578125 0.784 Q 2.56492578125 0.787 2.54292578125 0.795 L 2.54292578125 0.12 Q 2.54292578125 0.07500000000000007 2.52692578125 0.05349999999999999 Q 2.51092578125 0.03200000000000003 2.46692578125 0.03200000000000003 L 2.46692578125 0.01100000000000001 Q 2.49892578125 0.014000000000000012 2.52892578125 0.014000000000000012 Q 2.55792578125 0.014000000000000012 2.58442578125 0.010500000000000065 Q 2.61092578125 0.007000000000000006 2.63292578125 0 M 2.42292578125 0.255 Q 2.46692578125 0.255 2.50542578125 0.276 Q 2.54392578125 0.29700000000000004 2.55692578125 0.34800000000000003 L 2.54392578125 0.35800000000000004 Q 2.5299257812500002 0.316 2.50042578125 0.29700000000000004 Q 2.47092578125 0.278 2.43092578125 0.278 Q 2.37192578125 0.278 2.33242578125 0.339 Q 2.29292578125 0.4 2.29392578125 0.527 Q 2.29392578125 0.6080000000000001 2.30942578125 0.6615 Q 2.32492578125 0.7150000000000001 2.35542578125 0.7415 Q 2.38592578125 0.768 2.42992578125 0.768 Q 2.47192578125 0.768 2.50592578125 0.732 Q 2.53992578125 0.6960000000000001 2.54692578125 0.626 L 2.55892578125 0.64 Q 2.55092578125 0.716 2.51042578125 0.757 Q 2.46992578125 0.798 2.40092578125 0.798 Q 2.33892578125 0.798 2.29242578125 0.768 Q 2.24592578125 0.738 2.22142578125 0.678 Q 2.19692578125 0.618 2.19692578125 0.527 Q 2.19692578125 0.436 2.22842578125 0.3755 Q 2.25992578125 0.315 2.31142578125 0.28500000000000003 Q 2.36292578125 0.255 2.42292578125 0.255 M 3.359900390625 0.07600000000000007 L 3.359900390625 0.09599999999999997 Q 3.340900390625 0.09999999999999998 3.319400390625 0.119 Q 3.297900390625 0.138 3.280900390625 0.18300000000000005 L 3.045900390625 0.789 Q 3.043900390625 0.789 3.041900390625 0.789 Q 3.039900390625 0.789 3.037900390625 0.789 Q 3.035900390625 0.789 3.033900390625 0.789 Q 3.031900390625 0.789 3.029900390625 0.789 L 2.785900390625 0.16000000000000003 Q 2.770900390625 0.122 2.751900390625 0.10950000000000004 Q 2.732900390625 0.09699999999999998 2.716900390625 0.09599999999999997 L 2.716900390625 0.07600000000000007 Q 2.736900390625 0.07700000000000007 2.766400390625 0.07800000000000007 Q 2.795900390625 0.07900000000000007 2.823900390625 0.07900000000000007 Q 2.862900390625 0.07900000000000007 2.896900390625 0.07800000000000007 Q 2.930900390625 0.07700000000000007 2.951900390625 0.07600000000000007 L 2.951900390625 0.09599999999999997 Q 2.917900390625 0.09699999999999998 2.900400390625 0.10399999999999998 Q 2.882900390625 0.11099999999999999 2.881400390625 0.12850000000000006 Q 2.879900390625 0.14600000000000002 2.892900390625 0.18000000000000005 L 3.078900390625 0.673 L 3.062900390625 0.6900000000000001 L 3.2369003906250002 0.238 Q 3.257900390625 0.18400000000000005 3.256900390625 0.15349999999999997 Q 3.255900390625 0.123 3.233900390625 0.10999999999999999 Q 3.211900390625 0.09699999999999998 3.169900390625 0.09599999999999997 L 3.169900390625 0.07600000000000007 Q 3.198900390625 0.07700000000000007 3.2289003906250002 0.07800000000000007 Q 3.258900390625 0.07900000000000007 3.2849003906250003 0.07900000000000007 Q 3.310900390625 0.07900000000000007 3.327900390625 0.07800000000000007 Q 3.344900390625 0.07700000000000007 3.359900390625 0.07600000000000007 M 3.56690771484375 0.255 Q 3.63090771484375 0.255 3.6819077148437502 0.28300000000000003 Q 3.73290771484375 0.311 3.76340771484375 0.371 Q 3.79390771484375 0.43100000000000005 3.79390771484375 0.527 Q 3.79390771484375 0.623 3.76340771484375 0.6825 Q 3.73290771484375 0.742 3.6819077148437502 0.77 Q 3.63090771484375 0.798 3.56690771484375 0.798 Q 3.50390771484375 0.798 3.45240771484375 0.77 Q 3.40090771484375 0.742 3.37040771484375 0.6825 Q 3.33990771484375 0.623 3.33990771484375 0.527 Q 3.33990771484375 0.43100000000000005 3.37040771484375 0.371 Q 3.40090771484375 0.311 3.45240771484375 0.28300000000000003 Q 3.50390771484375 0.255 3.56690771484375 0.255 M 3.56690771484375 0.275 Q 3.50990771484375 0.275 3.47340771484375 0.334 Q 3.43690771484375 0.393 3.43690771484375 0.527 Q 3.43690771484375 0.661 3.47340771484375 0.7195 Q 3.50990771484375 0.778 3.56690771484375 0.778 Q 3.62390771484375 0.778 3.66040771484375 0.7195 Q 3.69690771484375 0.661 3.69690771484375 0.527 Q 3.69690771484375 0.393 3.66040771484375 0.334 Q 3.62390771484375 0.275 3.56690771484375 0.275 M 4.05388134765625 0.972 Q 4.00088134765625 0.972 3.95388134765625 0.9610000000000001 Q 3.90688134765625 0.9500000000000001 3.87838134765625 0.9265000000000001 Q 3.84988134765625 0.903 3.84988134765625 0.867 Q 3.84988134765625 0.8320000000000001 3.87788134765625 0.807 Q 3.90588134765625 0.782 3.95388134765625 0.769 L 3.95988134765625 0.785 Q 3.93788134765625 0.792 3.92488134765625 0.8130000000000001 Q 3.91188134765625 0.8340000000000001 3.91188134765625 0.86 Q 3.91188134765625 0.906 3.95438134765625 0.9305 Q 3.99688134765625 0.9550000000000001 4.06488134765625 0.9550000000000001 Q 4.10988134765625 0.9550000000000001 4.15288134765625 0.9435 Q 4.19588134765625 0.932 4.22388134765625 0.905 Q 4.25188134765625 0.878 4.25188134765625 0.8340000000000001 Q 4.25188134765625 0.801 4.22838134765625 0.7795000000000001 Q 4.20488134765625 0.758 4.13588134765625 0.758 L 4.06188134765625 0.758 Q 4.02988134765625 0.758 3.99988134765625 0.753 Q 3.96988134765625 0.748 3.95088134765625 0.732 Q 3.93188134765625 0.716 3.93188134765625 0.683 Q 3.93188134765625 0.649 3.95988134765625 0.6175 Q 3.98788134765625 0.5860000000000001 4.06288134765625 0.553 L 4.07488134765625 0.562 Q 4.04088134765625 0.5800000000000001 4.01588134765625 0.5985 Q 3.99088134765625 0.617 3.99088134765625 0.642 Q 3.99088134765625 0.674 4.03888134765625 0.674 L 4.16388134765625 0.674 Q 4.20588134765625 0.674 4.24138134765625 0.686 Q 4.27688134765625 0.6980000000000001 4.29888134765625 0.724 Q 4.32088134765625 0.75 4.32088134765625 0.792 Q 4.32088134765625 0.8390000000000001 4.29088134765625 0.88 Q 4.26088134765625 0.921 4.20138134765625 0.9465 Q 4.14188134765625 0.972 4.05388134765625 0.972 M 4.05888134765625 0.5710000000000001 Q 4.00988134765625 0.5710000000000001 3.96988134765625 0.5545 Q 3.92988134765625 0.538 3.90688134765625 0.503 Q 3.88388134765625 0.468 3.88388134765625 0.41300000000000003 Q 3.88388134765625 0.35800000000000004 3.90688134765625 0.323 Q 3.92988134765625 0.28800000000000003 3.96988134765625 0.2715000000000001 Q 4.00988134765625 0.255 4.05888134765625 0.255 Q 4.10888134765625 0.255 4.14838134765625 0.2715000000000001 Q 4.18788134765625 0.28800000000000003 4.21088134765625 0.323 Q 4.23388134765625 0.35800000000000004 4.23388134765625 0.41300000000000003 Q 4.23388134765625 0.468 4.21088134765625 0.503 Q 4.18788134765625 0.538 4.14838134765625 0.5545 Q 4.10888134765625 0.5710000000000001 4.05888134765625 0.5710000000000001 M 4.05888134765625 0.553 Q 4.09688134765625 0.553 4.11838134765625 0.523 Q 4.13988134765625 0.49300000000000005 4.13988134765625 0.41300000000000003 Q 4.13988134765625 0.333 4.11838134765625 0.30300000000000005 Q 4.09688134765625 0.273 4.05888134765625 0.273 Q 4.02188134765625 0.273 3.99988134765625 0.30300000000000005 Q 3.97788134765625 0.333 3.97788134765625 0.41300000000000003 Q 3.97788134765625 0.49300000000000005 3.99988134765625 0.523 Q 4.02188134765625 0.553 4.05888134765625 0.553 M 4.20288134765625 0.338 L 4.18488134765625 0.331 Q 4.19888134765625 0.29700000000000004 4.23288134765625 0.271 Q 4.26688134765625 0.245 4.30388134765625 0.245 Q 4.32988134765625 0.245 4.34588134765625 0.25950000000000006 Q 4.36188134765625 0.274 4.36188134765625 0.30300000000000005 Q 4.36188134765625 0.334 4.34538134765625 0.34650000000000003 Q 4.3288813476562495 0.35900000000000004 4.31188134765625 0.35900000000000004 Q 4.29688134765625 0.35900000000000004 4.28388134765625 0.34850000000000003 Q 4.27088134765625 0.338 4.26888134765625 0.315 Q 4.26688134765625 0.29200000000000004 4.28288134765625 0.256 L 4.29588134765625 0.259 Q 4.25388134765625 0.275 4.23588134765625 0.29250000000000004 Q 4.21788134765625 0.31 4.20288134765625 0.338 M 4.851896484375 0.258 L 4.851896484375 0.676 Q 4.851896484375 0.7210000000000001 4.868396484375 0.7425 Q 4.884896484375 0.764 4.927896484375 0.764 L 4.927896484375 0.785 Q 4.8968964843750005 0.782 4.865896484375 0.782 Q 4.836896484375 0.782 4.810396484375 0.785 Q 4.783896484375 0.788 4.761896484375 0.796 L 4.761896484375 0.678 Q 4.736896484375 0.743 4.691396484375 0.7705000000000001 Q 4.645896484375 0.798 4.597896484375 0.798 Q 4.562896484375 0.798 4.536896484375 0.788 Q 4.510896484375 0.778 4.493896484375 0.76 Q 4.474896484375 0.74 4.467896484375 0.7080000000000001 Q 4.460896484375 0.676 4.460896484375 0.629 L 4.460896484375 0.378 Q 4.460896484375 0.333 4.444896484375 0.3115 Q 4.428896484375 0.29000000000000004 4.384896484375 0.29000000000000004 L 4.384896484375 0.269 Q 4.416896484375 0.272 4.446896484375 0.272 Q 4.475896484375 0.272 4.502396484375 0.26850000000000007 Q 4.528896484375 0.265 4.550896484375 0.258 L 4.550896484375 0.651 Q 4.550896484375 0.682 4.554896484375 0.7080000000000001 Q 4.558896484375 0.734 4.574896484375 0.75 Q 4.590896484375 0.766 4.626896484375 0.766 Q 4.665896484375 0.766 4.696396484375 0.742 Q 4.726896484375 0.718 4.744396484375 0.677 Q 4.761896484375 0.636 4.761896484375 0.585 L 4.761896484375 0.378 Q 4.761896484375 0.333 4.745896484375 0.3115 Q 4.729896484375 0.29000000000000004 4.685896484375 0.29000000000000004 L 4.685896484375 0.269 Q 4.717896484375 0.272 4.747896484375 0.272 Q 4.776896484375 0.272 4.803396484375 0.26850000000000007 Q 4.829896484375 0.265 4.851896484375 0.258 M 5.22189013671875 0.255 Q 5.30989013671875 0.255 5.35939013671875 0.3085 Q 5.40889013671875 0.36200000000000004 5.40889013671875 0.47500000000000003 L 5.05589013671875 0.47500000000000003 L 5.05489013671875 0.456 L 5.3128901367187495 0.456 Q 5.31489013671875 0.40700000000000003 5.30489013671875 0.36550000000000005 Q 5.29489013671875 0.324 5.27339013671875 0.29900000000000004 Q 5.25189013671875 0.274 5.21789013671875 0.274 Q 5.17189013671875 0.274 5.13639013671875 0.32 Q 5.10089013671875 0.36600000000000005 5.09389013671875 0.466 L 5.09689013671875 0.47000000000000003 Q 5.09489013671875 0.48500000000000004 5.09389013671875 0.503 Q 5.09289013671875 0.521 5.09289013671875 0.539 Q 5.09289013671875 0.607 5.11489013671875 0.656 Q 5.13689013671875 0.7050000000000001 5.17239013671875 0.7305 Q 5.20789013671875 0.756 5.24589013671875 0.756 Q 5.27589013671875 0.756 5.30289013671875 0.7465 Q 5.32989013671875 0.737 5.3528901367187505 0.7150000000000001 Q 5.37589013671875 0.6930000000000001 5.39289013671875 0.656 L 5.41289013671875 0.664 Q 5.40189013671875 0.6970000000000001 5.37689013671875 0.728 Q 5.35189013671875 0.759 5.31389013671875 0.7785000000000001 Q 5.27589013671875 0.798 5.22589013671875 0.798 Q 5.15389013671875 0.798 5.10239013671875 0.765 Q 5.05089013671875 0.732 5.02339013671875 0.6735 Q 4.99589013671875 0.615 4.99589013671875 0.539 Q 4.99589013671875 0.451 5.02389013671875 0.3875 Q 5.05189013671875 0.324 5.10289013671875 0.28950000000000004 Q 5.15389013671875 0.255 5.22189013671875 0.255" fill="#000000" fill-rule="nonzero"></path></g><g><path d=" M -1.2283926025390624 1.7288999999999999 Q -1.2358926025390624 1.7204 -1.2458926025390624 1.71365 Q -1.2558926025390624 1.7068999999999999 -1.2683926025390624 1.7018999999999997 Q -1.2808926025390623 1.6968999999999999 -1.2951426025390624 1.6938999999999997 Q -1.3093926025390623 1.6908999999999998 -1.3253926025390623 1.6908999999999998 Q -1.3718926025390623 1.6908999999999998 -1.3936426025390622 1.7086499999999998 Q -1.4153926025390624 1.7264 -1.4153926025390624 1.7569 Q -1.4153926025390624 1.7778999999999998 -1.4051426025390623 1.7898999999999998 Q -1.3948926025390624 1.8018999999999998 -1.3728926025390624 1.8094 Q -1.3508926025390624 1.8169 -1.3168926025390624 1.8249 Q -1.2788926025390623 1.8329 -1.2513926025390623 1.8438999999999999 Q -1.2238926025390624 1.8548999999999998 -1.2088926025390623 1.8736499999999998 Q -1.1938926025390624 1.8923999999999999 -1.1938926025390624 1.9243999999999999 Q -1.1938926025390624 1.9488999999999999 -1.2033926025390622 1.9668999999999999 Q -1.2128926025390623 1.9848999999999999 -1.2298926025390624 1.9969 Q -1.2468926025390623 2.0088999999999997 -1.2703926025390624 2.01465 Q -1.2938926025390622 2.0204 -1.3218926025390623 2.0204 Q -1.3493926025390623 2.0204 -1.3746426025390623 2.01465 Q -1.3998926025390623 2.0088999999999997 -1.4223926025390623 1.99765 Q -1.4448926025390623 1.9864 -1.4643926025390623 1.9688999999999999 L -1.4468926025390623 1.9404 Q -1.4373926025390624 1.9504 -1.4241426025390624 1.95915 Q -1.4108926025390622 1.9678999999999998 -1.3946426025390624 1.9748999999999999 Q -1.3783926025390623 1.9818999999999998 -1.3596426025390624 1.98565 Q -1.3408926025390624 1.9893999999999998 -1.3208926025390624 1.9893999999999998 Q -1.2783926025390624 1.9893999999999998 -1.2546426025390622 1.9738999999999998 Q -1.2308926025390623 1.9584 -1.2308926025390623 1.9279 Q -1.2308926025390623 1.9059 -1.2428926025390623 1.89265 Q -1.2548926025390623 1.8794 -1.2788926025390623 1.8708999999999998 Q -1.3028926025390624 1.8623999999999998 -1.3378926025390623 1.8543999999999998 Q -1.3748926025390624 1.8458999999999999 -1.4003926025390623 1.8354 Q -1.4258926025390624 1.8249 -1.4386426025390624 1.8076499999999998 Q -1.4513926025390624 1.7903999999999998 -1.4513926025390624 1.7618999999999998 Q -1.4513926025390624 1.7288999999999999 -1.4351426025390623 1.7061499999999998 Q -1.4188926025390622 1.6833999999999998 -1.3903926025390623 1.6716499999999999 Q -1.3618926025390623 1.6599 -1.3248926025390624 1.6599 Q -1.3013926025390623 1.6599 -1.2811426025390624 1.66465 Q -1.2608926025390623 1.6693999999999998 -1.2436426025390623 1.6784 Q -1.2263926025390623 1.6873999999999998 -1.2113926025390622 1.7008999999999999 L -1.2283926025390624 1.7288999999999999 M -1.0188813720703123 2.0048999999999997 Q -1.0228813720703123 2.0063999999999997 -1.0313813720703124 2.0103999999999997 Q -1.0398813720703124 2.0143999999999997 -1.0518813720703124 2.0174 Q -1.0638813720703124 2.0204 -1.0778813720703124 2.0204 Q -1.0923813720703124 2.0204 -1.1051313720703124 2.0149 Q -1.1178813720703125 2.0094 -1.1253813720703123 1.9981499999999999 Q -1.1328813720703124 1.9868999999999999 -1.1328813720703124 1.9704 L -1.1328813720703124 1.7838999999999998 L -1.1688813720703124 1.7838999999999998 L -1.1688813720703124 1.7569 L -1.1328813720703124 1.7569 L -1.1328813720703124 1.6688999999999998 L -1.0988813720703123 1.6688999999999998 L -1.0988813720703123 1.7569 L -1.0388813720703123 1.7569 L -1.0388813720703123 1.7838999999999998 L -1.0988813720703123 1.7838999999999998 L -1.0988813720703123 1.9608999999999999 Q -1.0978813720703124 1.9748999999999999 -1.0886313720703122 1.9818999999999998 Q -1.0793813720703123 1.9889 -1.0673813720703123 1.9889 Q -1.0533813720703122 1.9889 -1.0418813720703124 1.9841499999999999 Q -1.0303813720703123 1.9793999999999998 -1.0278813720703124 1.9773999999999998 L -1.0188813720703123 2.0048999999999997 M -0.9613703857421874 2.0974 Q -0.9543703857421874 2.0978999999999997 -0.9478703857421873 2.09815 Q -0.9413703857421873 2.0984 -0.9383703857421873 2.0974 Q -0.9323703857421873 2.0964 -0.9268703857421874 2.0904 Q -0.9213703857421873 2.0844 -0.9138703857421874 2.0673999999999997 Q -0.9063703857421873 2.0504 -0.8928703857421874 2.0174 L -1.0063703857421873 1.7569 L -0.9703703857421874 1.7569 L -0.8748703857421873 1.9824 L -0.7868703857421874 1.7569 L -0.7528703857421873 1.7569 L -0.8878703857421874 2.0928999999999998 Q -0.8913703857421873 2.1024 -0.8983703857421873 2.1106499999999997 Q -0.9053703857421873 2.1189 -0.9156203857421874 2.12365 Q -0.9258703857421874 2.1284 -0.9408703857421874 2.1289 Q -0.9453703857421873 2.1294 -0.9501203857421874 2.1291499999999997 Q -0.9548703857421873 2.1289 -0.9613703857421874 2.1279 L -0.9613703857421874 2.0974 M -0.7038742919921873 1.6523999999999999 L -0.6698742919921874 1.6523999999999999 L -0.6698742919921874 1.9584 Q -0.6698742919921874 1.9778999999999998 -0.6628742919921874 1.9838999999999998 Q -0.6558742919921874 1.9898999999999998 -0.6458742919921874 1.9898999999999998 Q -0.6368742919921874 1.9898999999999998 -0.6278742919921874 1.9878999999999998 Q -0.6188742919921874 1.9858999999999998 -0.6123742919921873 1.9838999999999998 L -0.6063742919921873 2.0114 Q -0.6158742919921874 2.0154 -0.6296242919921874 2.0179 Q -0.6433742919921873 2.0204 -0.6533742919921873 2.0204 Q -0.6763742919921873 2.0204 -0.6901242919921874 2.0069 Q -0.7038742919921873 1.9933999999999998 -0.7038742919921873 1.9698999999999998 L -0.7038742919921873 1.6523999999999999 M -0.45688796386718733 2.0223999999999998 Q -0.48488796386718735 2.0223999999999998 -0.5088879638671874 2.01165 Q -0.5328879638671874 2.0008999999999997 -0.5503879638671874 1.9821499999999999 Q -0.5678879638671873 1.9633999999999998 -0.5776379638671874 1.9388999999999998 Q -0.5873879638671874 1.9143999999999999 -0.5873879638671874 1.8863999999999999 Q -0.5873879638671874 1.8498999999999999 -0.5706379638671873 1.8194 Q -0.5538879638671873 1.7889 -0.5243879638671873 1.7706499999999998 Q -0.49488796386718736 1.7523999999999997 -0.4573879638671874 1.7523999999999997 Q -0.41888796386718735 1.7523999999999997 -0.39013796386718735 1.7709 Q -0.36138796386718736 1.7893999999999999 -0.34488796386718734 1.8196499999999998 Q -0.3283879638671873 1.8498999999999999 -0.3283879638671873 1.8859 Q -0.3283879638671873 1.8899 -0.3283879638671873 1.8936499999999998 Q -0.3283879638671873 1.8973999999999998 -0.3288879638671873 1.8993999999999998 L -0.5518879638671873 1.8993999999999998 Q -0.5493879638671874 1.9273999999999998 -0.5361379638671874 1.94915 Q -0.5228879638671874 1.9708999999999999 -0.5016379638671874 1.98365 Q -0.48038796386718735 1.9964 -0.4553879638671874 1.9964 Q -0.42988796386718736 1.9964 -0.40713796386718737 1.9833999999999998 Q -0.3843879638671873 1.9704 -0.3753879638671873 1.9493999999999998 L -0.34588796386718734 1.9573999999999998 Q -0.35388796386718735 1.9758999999999998 -0.3703879638671873 1.9909 Q -0.3868879638671874 2.0059 -0.40913796386718737 2.01415 Q -0.43138796386718736 2.0223999999999998 -0.45688796386718733 2.0223999999999998 M -0.5528879638671873 1.8748999999999998 L -0.36038796386718736 1.8748999999999998 Q -0.36238796386718736 1.8463999999999998 -0.37563796386718734 1.8249 Q -0.3888879638671874 1.8034 -0.41013796386718737 1.7911499999999998 Q -0.43138796386718736 1.7789 -0.45688796386718733 1.7789 Q -0.48238796386718735 1.7789 -0.5033879638671873 1.7911499999999998 Q -0.5243879638671873 1.8034 -0.5376379638671873 1.8251499999999998 Q -0.5508879638671873 1.8468999999999998 -0.5528879638671873 1.8748999999999998 M 0.17310202636718763 2.0174 L 0.17310202636718763 1.7284 L 0.04460202636718766 1.9528999999999999 L 0.02260202636718764 1.9528999999999999 L -0.10639797363281235 1.7284 L -0.10639797363281235 2.0174 L -0.14139797363281237 2.0174 L -0.14139797363281237 1.6623999999999999 L -0.10539797363281235 1.6623999999999999 L 0.03310202636718765 1.9053999999999998 L 0.17260202636718763 1.6623999999999999 L 0.20810202636718766 1.6623999999999999 L 0.20810202636718766 2.0174 L 0.17310202636718763 2.0174 M 0.39861130371093767 2.0223999999999998 Q 0.37061130371093765 2.0223999999999998 0.3466113037109376 2.01165 Q 0.32261130371093766 2.0008999999999997 0.30511130371093764 1.9821499999999999 Q 0.2876113037109376 1.9633999999999998 0.27786130371093765 1.9388999999999998 Q 0.26811130371093767 1.9143999999999999 0.26811130371093767 1.8863999999999999 Q 0.26811130371093767 1.8498999999999999 0.28486130371093765 1.8194 Q 0.30161130371093764 1.7889 0.33111130371093767 1.7706499999999998 Q 0.36061130371093764 1.7523999999999997 0.3981113037109376 1.7523999999999997 Q 0.43661130371093765 1.7523999999999997 0.46536130371093765 1.7709 Q 0.49411130371093764 1.7893999999999999 0.5106113037109377 1.8196499999999998 Q 0.5271113037109376 1.8498999999999999 0.5271113037109376 1.8859 Q 0.5271113037109376 1.8899 0.5271113037109376 1.8936499999999998 Q 0.5271113037109376 1.8973999999999998 0.5266113037109377 1.8993999999999998 L 0.30361130371093764 1.8993999999999998 Q 0.30611130371093764 1.9273999999999998 0.3193613037109376 1.94915 Q 0.33261130371093767 1.9708999999999999 0.35386130371093766 1.98365 Q 0.37511130371093765 1.9964 0.4001113037109376 1.9964 Q 0.42561130371093764 1.9964 0.44836130371093763 1.9833999999999998 Q 0.4711113037109377 1.9704 0.4801113037109377 1.9493999999999998 L 0.5096113037109377 1.9573999999999998 Q 0.5016113037109377 1.9758999999999998 0.4851113037109377 1.9909 Q 0.4686113037109376 2.0059 0.44636130371093763 2.01415 Q 0.42411130371093764 2.0223999999999998 0.39861130371093767 2.0223999999999998 M 0.30261130371093764 1.8748999999999998 L 0.49511130371093764 1.8748999999999998 Q 0.49311130371093764 1.8463999999999998 0.47986130371093766 1.8249 Q 0.4666113037109376 1.8034 0.44536130371093763 1.7911499999999998 Q 0.42411130371093764 1.7789 0.39861130371093767 1.7789 Q 0.37311130371093765 1.7789 0.3521113037109377 1.7911499999999998 Q 0.33111130371093767 1.8034 0.3178613037109377 1.8251499999999998 Q 0.30461130371093764 1.8468999999999998 0.30261130371093764 1.8748999999999998 M 0.6920988525390627 2.0223999999999998 Q 0.6640988525390626 2.0223999999999998 0.6400988525390626 2.01165 Q 0.6160988525390626 2.0008999999999997 0.5985988525390626 1.9821499999999999 Q 0.5810988525390627 1.9633999999999998 0.5713488525390626 1.9388999999999998 Q 0.5615988525390626 1.9143999999999999 0.5615988525390626 1.8863999999999999 Q 0.5615988525390626 1.8498999999999999 0.5783488525390627 1.8194 Q 0.5950988525390627 1.7889 0.6245988525390627 1.7706499999999998 Q 0.6540988525390626 1.7523999999999997 0.6915988525390626 1.7523999999999997 Q 0.7300988525390626 1.7523999999999997 0.7588488525390626 1.7709 Q 0.7875988525390627 1.7893999999999999 0.8040988525390627 1.8196499999999998 Q 0.8205988525390626 1.8498999999999999 0.8205988525390626 1.8859 Q 0.8205988525390626 1.8899 0.8205988525390626 1.8936499999999998 Q 0.8205988525390626 1.8973999999999998 0.8200988525390627 1.8993999999999998 L 0.5970988525390627 1.8993999999999998 Q 0.5995988525390626 1.9273999999999998 0.6128488525390626 1.94915 Q 0.6260988525390626 1.9708999999999999 0.6473488525390626 1.98365 Q 0.6685988525390627 1.9964 0.6935988525390626 1.9964 Q 0.7190988525390627 1.9964 0.7418488525390626 1.9833999999999998 Q 0.7645988525390627 1.9704 0.7735988525390627 1.9493999999999998 L 0.8030988525390627 1.9573999999999998 Q 0.7950988525390627 1.9758999999999998 0.7785988525390627 1.9909 Q 0.7620988525390626 2.0059 0.7398488525390626 2.01415 Q 0.7175988525390626 2.0223999999999998 0.6920988525390627 2.0223999999999998 M 0.5960988525390627 1.8748999999999998 L 0.7885988525390626 1.8748999999999998 Q 0.7865988525390626 1.8463999999999998 0.7733488525390626 1.8249 Q 0.7600988525390626 1.8034 0.7388488525390626 1.7911499999999998 Q 0.7175988525390626 1.7789 0.6920988525390627 1.7789 Q 0.6665988525390627 1.7789 0.6455988525390627 1.7911499999999998 Q 0.6245988525390627 1.8034 0.6113488525390627 1.8251499999999998 Q 0.5980988525390627 1.8468999999999998 0.5960988525390627 1.8748999999999998 M 0.9955839599609376 2.0048999999999997 Q 0.9915839599609376 2.0063999999999997 0.9830839599609377 2.0103999999999997 Q 0.9745839599609376 2.0143999999999997 0.9625839599609376 2.0174 Q 0.9505839599609377 2.0204 0.9365839599609377 2.0204 Q 0.9220839599609376 2.0204 0.9093339599609377 2.0149 Q 0.8965839599609376 2.0094 0.8890839599609377 1.9981499999999999 Q 0.8815839599609376 1.9868999999999999 0.8815839599609376 1.9704 L 0.8815839599609376 1.7838999999999998 L 0.8455839599609376 1.7838999999999998 L 0.8455839599609376 1.7569 L 0.8815839599609376 1.7569 L 0.8815839599609376 1.6688999999999998 L 0.9155839599609377 1.6688999999999998 L 0.9155839599609377 1.7569 L 0.9755839599609377 1.7569 L 0.9755839599609377 1.7838999999999998 L 0.9155839599609377 1.7838999999999998 L 0.9155839599609377 1.9608999999999999 Q 0.9165839599609377 1.9748999999999999 0.9258339599609376 1.9818999999999998 Q 0.9350839599609376 1.9889 0.9470839599609376 1.9889 Q 0.9610839599609377 1.9889 0.9725839599609376 1.9841499999999999 Q 0.9840839599609377 1.9793999999999998 0.9865839599609376 1.9773999999999998 L 0.9955839599609376 2.0048999999999997 M 1.1235949462890626 2.0223999999999998 Q 1.0915949462890626 2.0223999999999998 1.0640949462890625 2.0119 Q 1.0365949462890627 2.0014 1.0165949462890627 1.9798999999999998 L 1.0305949462890627 1.9558999999999997 Q 1.0525949462890627 1.9764 1.0748449462890626 1.98565 Q 1.0970949462890627 1.9949 1.1220949462890626 1.9949 Q 1.1525949462890626 1.9949 1.1715949462890627 1.9826499999999998 Q 1.1905949462890626 1.9704 1.1905949462890626 1.9473999999999998 Q 1.1905949462890626 1.9319 1.1813449462890626 1.9236499999999999 Q 1.1720949462890626 1.9153999999999998 1.1548449462890626 1.9101499999999998 Q 1.1375949462890627 1.9048999999999998 1.1135949462890626 1.8988999999999998 Q 1.0865949462890627 1.8914 1.0683449462890626 1.8831499999999999 Q 1.0500949462890627 1.8748999999999998 1.0408449462890625 1.8621499999999997 Q 1.0315949462890626 1.8494 1.0315949462890626 1.8289 Q 1.0315949462890626 1.8034 1.0443449462890626 1.7866499999999998 Q 1.0570949462890626 1.7698999999999998 1.0793449462890627 1.7611499999999998 Q 1.1015949462890626 1.7523999999999997 1.1290949462890627 1.7523999999999997 Q 1.1590949462890627 1.7523999999999997 1.1820949462890626 1.7618999999999998 Q 1.2050949462890626 1.7713999999999999 1.2195949462890627 1.7883999999999998 L 1.2030949462890628 1.8114 Q 1.1890949462890625 1.7953999999999999 1.1698449462890625 1.7876499999999997 Q 1.1505949462890626 1.7798999999999998 1.1270949462890627 1.7798999999999998 Q 1.1110949462890627 1.7798999999999998 1.0965949462890627 1.78415 Q 1.0820949462890626 1.7883999999999998 1.0728449462890626 1.79815 Q 1.0635949462890626 1.8078999999999998 1.0635949462890626 1.8249 Q 1.0635949462890626 1.8388999999999998 1.0705949462890627 1.84665 Q 1.0775949462890626 1.8543999999999998 1.0915949462890626 1.8596499999999998 Q 1.1055949462890626 1.8648999999999998 1.1260949462890626 1.8708999999999998 Q 1.1555949462890627 1.8788999999999998 1.1775949462890627 1.8871499999999999 Q 1.1995949462890627 1.8954 1.2115949462890627 1.9083999999999999 Q 1.2235949462890627 1.9213999999999998 1.2235949462890627 1.9448999999999999 Q 1.2235949462890627 1.9813999999999998 1.1960949462890627 2.0019 Q 1.1685949462890626 2.0223999999999998 1.1235949462890626 2.0223999999999998 M 1.4140829833984376 2.0174 L 1.4140829833984376 1.6623999999999999 L 1.4490829833984376 1.6623999999999999 L 1.4490829833984376 2.0174 L 1.4140829833984376 2.0174 M 1.7500759033203126 2.0174 L 1.7160759033203126 2.0174 L 1.7160759033203126 1.8719 Q 1.7160759033203126 1.8258999999999999 1.7025759033203127 1.8046499999999999 Q 1.6890759033203127 1.7833999999999999 1.6600759033203127 1.7833999999999999 Q 1.6400759033203127 1.7833999999999999 1.6205759033203126 1.7931499999999998 Q 1.6010759033203126 1.8029 1.5863259033203128 1.8196499999999998 Q 1.5715759033203127 1.8363999999999998 1.5650759033203125 1.8578999999999999 L 1.5650759033203125 2.0174 L 1.5310759033203127 2.0174 L 1.5310759033203127 1.7569 L 1.5620759033203127 1.7569 L 1.5620759033203127 1.8158999999999998 Q 1.5725759033203126 1.7969 1.5895759033203127 1.7826499999999998 Q 1.6065759033203126 1.7683999999999997 1.6280759033203127 1.7603999999999997 Q 1.6495759033203126 1.7523999999999997 1.6725759033203127 1.7523999999999997 Q 1.6940759033203125 1.7523999999999997 1.7090759033203127 1.7603999999999997 Q 1.7240759033203126 1.7683999999999997 1.7330759033203127 1.7831499999999998 Q 1.7420759033203126 1.7978999999999998 1.7460759033203126 1.8186499999999999 Q 1.7500759033203126 1.8394 1.7500759033203126 1.8648999999999998 L 1.7500759033203126 2.0174 M 2.0415798095703126 2.0174 L 2.007579809570313 2.0174 L 2.007579809570313 1.8719 Q 2.007579809570313 1.8258999999999999 1.9940798095703127 1.8046499999999999 Q 1.9805798095703127 1.7833999999999999 1.9515798095703127 1.7833999999999999 Q 1.9315798095703127 1.7833999999999999 1.9120798095703126 1.7931499999999998 Q 1.8925798095703126 1.8029 1.8778298095703128 1.8196499999999998 Q 1.8630798095703127 1.8363999999999998 1.8565798095703125 1.8578999999999999 L 1.8565798095703125 2.0174 L 1.8225798095703127 2.0174 L 1.8225798095703127 1.7569 L 1.8535798095703127 1.7569 L 1.8535798095703127 1.8158999999999998 Q 1.8640798095703126 1.7969 1.8810798095703127 1.7826499999999998 Q 1.8980798095703126 1.7683999999999997 1.9195798095703127 1.7603999999999997 Q 1.9410798095703126 1.7523999999999997 1.9640798095703127 1.7523999999999997 Q 1.9855798095703125 1.7523999999999997 2.0005798095703127 1.7603999999999997 Q 2.015579809570313 1.7683999999999997 2.0245798095703127 1.7831499999999998 Q 2.0335798095703126 1.7978999999999998 2.0375798095703126 1.8186499999999999 Q 2.0415798095703126 1.8394 2.0415798095703126 1.8648999999999998 L 2.0415798095703126 2.0174 M 2.2250837158203125 2.0223999999999998 Q 2.1970837158203125 2.0223999999999998 2.1733337158203128 2.01165 Q 2.1495837158203126 2.0008999999999997 2.132333715820313 1.9821499999999999 Q 2.1150837158203126 1.9633999999999998 2.1055837158203126 1.93915 Q 2.0960837158203125 1.9148999999999998 2.0960837158203125 1.8879 Q 2.0960837158203125 1.8598999999999999 2.1055837158203126 1.8356499999999998 Q 2.1150837158203126 1.8114 2.1325837158203127 1.7926499999999999 Q 2.1500837158203128 1.7738999999999998 2.1738337158203125 1.7631499999999998 Q 2.1975837158203126 1.7523999999999997 2.2255837158203127 1.7523999999999997 Q 2.2535837158203127 1.7523999999999997 2.2770837158203125 1.7631499999999998 Q 2.300583715820313 1.7738999999999998 2.3180837158203125 1.7926499999999999 Q 2.3355837158203125 1.8114 2.3450837158203126 1.8356499999999998 Q 2.3545837158203127 1.8598999999999999 2.3545837158203127 1.8879 Q 2.3545837158203127 1.9148999999999998 2.3450837158203126 1.93915 Q 2.3355837158203125 1.9633999999999998 2.318333715820313 1.9821499999999999 Q 2.3010837158203126 2.0008999999999997 2.277333715820313 2.01165 Q 2.2535837158203127 2.0223999999999998 2.2250837158203125 2.0223999999999998 M 2.1305837158203125 1.8883999999999999 Q 2.1305837158203125 1.9173999999999998 2.1433337158203125 1.94115 Q 2.1560837158203126 1.9648999999999999 2.1775837158203126 1.9786499999999998 Q 2.1990837158203127 1.9924 2.2250837158203125 1.9924 Q 2.2510837158203127 1.9924 2.272583715820313 1.9784 Q 2.2940837158203125 1.9644 2.307083715820313 1.9401499999999998 Q 2.3200837158203127 1.9159 2.3200837158203127 1.8874 Q 2.3200837158203127 1.8583999999999998 2.307083715820313 1.8343999999999998 Q 2.2940837158203125 1.8103999999999998 2.272583715820313 1.7963999999999998 Q 2.2510837158203127 1.7823999999999998 2.2250837158203125 1.7823999999999998 Q 2.1990837158203127 1.7823999999999998 2.1778337158203125 1.7969 Q 2.1565837158203127 1.8114 2.143583715820313 1.8351499999999998 Q 2.1305837158203125 1.8588999999999998 2.1305837158203125 1.8883999999999999 M 2.480066381835938 2.0174 L 2.3745663818359377 1.7569 L 2.4100663818359376 1.7569 L 2.4990663818359375 1.9833999999999998 L 2.5885663818359377 1.7569 L 2.6220663818359378 1.7569 L 2.5165663818359376 2.0174 L 2.480066381835938 2.0174 M 2.641576147460938 1.9424 Q 2.641576147460938 1.9179 2.6555761474609376 1.9001499999999998 Q 2.669576147460938 1.8823999999999999 2.6943261474609375 1.87265 Q 2.7190761474609375 1.8628999999999998 2.7515761474609377 1.8628999999999998 Q 2.770576147460938 1.8628999999999998 2.7910761474609376 1.8659 Q 2.8115761474609378 1.8688999999999998 2.8275761474609378 1.8748999999999998 L 2.8275761474609378 1.8528999999999998 Q 2.8275761474609378 1.8198999999999999 2.8080761474609375 1.8003999999999998 Q 2.7885761474609376 1.7809 2.7540761474609377 1.7809 Q 2.7330761474609377 1.7809 2.712826147460938 1.7886499999999999 Q 2.6925761474609375 1.7963999999999998 2.6705761474609377 1.8114 L 2.657576147460938 1.7873999999999999 Q 2.6830761474609375 1.7698999999999998 2.7075761474609377 1.7611499999999998 Q 2.732076147460938 1.7523999999999997 2.7575761474609375 1.7523999999999997 Q 2.8055761474609375 1.7523999999999997 2.8335761474609376 1.7798999999999998 Q 2.8615761474609376 1.8074 2.8615761474609376 1.8558999999999999 L 2.8615761474609376 1.9764 Q 2.8615761474609376 1.9833999999999998 2.8645761474609377 1.9866499999999998 Q 2.867576147460938 1.9898999999999998 2.8740761474609378 1.9904 L 2.8740761474609378 2.0174 Q 2.8685761474609377 2.0179 2.8645761474609377 2.0183999999999997 Q 2.8605761474609377 2.0189 2.8585761474609375 2.0183999999999997 Q 2.8460761474609377 2.0179 2.839576147460938 2.0103999999999997 Q 2.833076147460938 2.0029 2.8325761474609377 1.9944 L 2.8320761474609375 1.9753999999999998 Q 2.8145761474609374 1.9978999999999998 2.786576147460938 2.01015 Q 2.758576147460938 2.0223999999999998 2.7295761474609375 2.0223999999999998 Q 2.7045761474609376 2.0223999999999998 2.6843261474609377 2.01165 Q 2.664076147460938 2.0008999999999997 2.652826147460938 1.9826499999999998 Q 2.641576147460938 1.9644 2.641576147460938 1.9424 M 2.8160761474609375 1.9624 Q 2.8215761474609375 1.9553999999999998 2.8245761474609377 1.9488999999999999 Q 2.8275761474609378 1.9424 2.8275761474609378 1.9373999999999998 L 2.8275761474609378 1.8993999999999998 Q 2.810576147460938 1.8928999999999998 2.7923261474609378 1.8893999999999997 Q 2.7740761474609377 1.8859 2.7555761474609377 1.8859 Q 2.7190761474609375 1.8859 2.6965761474609375 1.9003999999999999 Q 2.6740761474609376 1.9148999999999998 2.6740761474609376 1.9399 Q 2.6740761474609376 1.9544 2.681576147460938 1.96715 Q 2.6890761474609377 1.9798999999999998 2.7035761474609377 1.9881499999999999 Q 2.7180761474609376 1.9964 2.7375761474609375 1.9964 Q 2.7620761474609377 1.9964 2.7833261474609374 1.9868999999999999 Q 2.8045761474609376 1.9773999999999998 2.8160761474609375 1.9624 M 3.0580534423828127 2.0048999999999997 Q 3.0540534423828127 2.0063999999999997 3.0455534423828126 2.0103999999999997 Q 3.037053442382813 2.0143999999999997 3.025053442382813 2.0174 Q 3.013053442382813 2.0204 2.9990534423828126 2.0204 Q 2.9845534423828126 2.0204 2.9718034423828126 2.0149 Q 2.9590534423828125 2.0094 2.9515534423828127 1.9981499999999999 Q 2.944053442382813 1.9868999999999999 2.944053442382813 1.9704 L 2.944053442382813 1.7838999999999998 L 2.908053442382813 1.7838999999999998 L 2.908053442382813 1.7569 L 2.944053442382813 1.7569 L 2.944053442382813 1.6688999999999998 L 2.9780534423828127 1.6688999999999998 L 2.9780534423828127 1.7569 L 3.0380534423828127 1.7569 L 3.0380534423828127 1.7838999999999998 L 2.9780534423828127 1.7838999999999998 L 2.9780534423828127 1.9608999999999999 Q 2.9790534423828126 1.9748999999999999 2.9883034423828128 1.9818999999999998 Q 2.9975534423828125 1.9889 3.0095534423828125 1.9889 Q 3.0235534423828128 1.9889 3.0350534423828126 1.9841499999999999 Q 3.0465534423828124 1.9793999999999998 3.049053442382813 1.9773999999999998 L 3.0580534423828127 2.0048999999999997 M 3.1005644287109377 2.0174 L 3.1005644287109377 1.7569 L 3.1345644287109375 1.7569 L 3.1345644287109375 2.0174 L 3.1005644287109377 2.0174 M 3.1005644287109377 1.7024 L 3.1005644287109377 1.6523999999999999 L 3.1345644287109375 1.6523999999999999 L 3.1345644287109375 1.7024 L 3.1005644287109377 1.7024 M 3.3205732177734375 2.0223999999999998 Q 3.2925732177734375 2.0223999999999998 3.2688232177734378 2.01165 Q 3.2450732177734376 2.0008999999999997 3.227823217773438 1.9821499999999999 Q 3.2105732177734376 1.9633999999999998 3.2010732177734376 1.93915 Q 3.1915732177734375 1.9148999999999998 3.1915732177734375 1.8879 Q 3.1915732177734375 1.8598999999999999 3.2010732177734376 1.8356499999999998 Q 3.2105732177734376 1.8114 3.2280732177734377 1.7926499999999999 Q 3.2455732177734378 1.7738999999999998 3.2693232177734375 1.7631499999999998 Q 3.2930732177734376 1.7523999999999997 3.3210732177734377 1.7523999999999997 Q 3.3490732177734377 1.7523999999999997 3.3725732177734375 1.7631499999999998 Q 3.396073217773438 1.7738999999999998 3.4135732177734375 1.7926499999999999 Q 3.4310732177734375 1.8114 3.4405732177734376 1.8356499999999998 Q 3.4500732177734377 1.8598999999999999 3.4500732177734377 1.8879 Q 3.4500732177734377 1.9148999999999998 3.4405732177734376 1.93915 Q 3.4310732177734375 1.9633999999999998 3.413823217773438 1.9821499999999999 Q 3.3965732177734376 2.0008999999999997 3.372823217773438 2.01165 Q 3.3490732177734377 2.0223999999999998 3.3205732177734375 2.0223999999999998 M 3.2260732177734375 1.8883999999999999 Q 3.2260732177734375 1.9173999999999998 3.2388232177734375 1.94115 Q 3.2515732177734376 1.9648999999999999 3.2730732177734376 1.9786499999999998 Q 3.2945732177734377 1.9924 3.3205732177734375 1.9924 Q 3.3465732177734377 1.9924 3.368073217773438 1.9784 Q 3.3895732177734375 1.9644 3.402573217773438 1.9401499999999998 Q 3.4155732177734377 1.9159 3.4155732177734377 1.8874 Q 3.4155732177734377 1.8583999999999998 3.402573217773438 1.8343999999999998 Q 3.3895732177734375 1.8103999999999998 3.368073217773438 1.7963999999999998 Q 3.3465732177734377 1.7823999999999998 3.3205732177734375 1.7823999999999998 Q 3.2945732177734377 1.7823999999999998 3.2733232177734375 1.7969 Q 3.2520732177734377 1.8114 3.239073217773438 1.8351499999999998 Q 3.2260732177734375 1.8588999999999998 3.2260732177734375 1.8883999999999999 M 3.7260585693359376 2.0174 L 3.692058569335938 2.0174 L 3.692058569335938 1.8719 Q 3.692058569335938 1.8258999999999999 3.6785585693359377 1.8046499999999999 Q 3.6650585693359377 1.7833999999999999 3.6360585693359377 1.7833999999999999 Q 3.6160585693359377 1.7833999999999999 3.5965585693359374 1.7931499999999998 Q 3.5770585693359376 1.8029 3.5623085693359378 1.8196499999999998 Q 3.5475585693359375 1.8363999999999998 3.5410585693359375 1.8578999999999999 L 3.5410585693359375 2.0174 L 3.5070585693359377 2.0174 L 3.5070585693359377 1.7569 L 3.538058569335938 1.7569 L 3.538058569335938 1.8158999999999998 Q 3.548558569335938 1.7969 3.5655585693359377 1.7826499999999998 Q 3.5825585693359376 1.7683999999999997 3.6040585693359377 1.7603999999999997 Q 3.625558569335938 1.7523999999999997 3.6485585693359375 1.7523999999999997 Q 3.6700585693359375 1.7523999999999997 3.6850585693359377 1.7603999999999997 Q 3.700058569335938 1.7683999999999997 3.7090585693359377 1.7831499999999998 Q 3.7180585693359376 1.7978999999999998 3.7220585693359376 1.8186499999999999 Q 3.7260585693359376 1.8394 3.7260585693359376 1.8648999999999998 L 3.7260585693359376 2.0174 M 3.921064916992188 1.8968999999999998 L 3.921064916992188 1.8654 L 4.067064916992187 1.8654 L 4.067064916992187 1.8968999999999998 L 3.921064916992188 1.8968999999999998 M 4.510065893554688 1.9864 L 4.510065893554688 2.0174 L 4.271565893554688 2.0174 L 4.271565893554688 1.6623999999999999 L 4.505565893554688 1.6623999999999999 L 4.505565893554688 1.6933999999999998 L 4.306565893554688 1.6933999999999998 L 4.306565893554688 1.8214 L 4.480065893554688 1.8214 L 4.480065893554688 1.8508999999999998 L 4.306565893554688 1.8508999999999998 L 4.306565893554688 1.9864 L 4.510065893554688 1.9864 M 4.570570288085937 1.6523999999999999 L 4.604570288085938 1.6523999999999999 L 4.604570288085938 1.9584 Q 4.604570288085938 1.9778999999999998 4.611570288085938 1.9838999999999998 Q 4.618570288085937 1.9898999999999998 4.628570288085938 1.9898999999999998 Q 4.6375702880859375 1.9898999999999998 4.646570288085938 1.9878999999999998 Q 4.655570288085937 1.9858999999999998 4.662070288085937 1.9838999999999998 L 4.6680702880859375 2.0114 Q 4.658570288085937 2.0154 4.6448202880859375 2.0179 Q 4.631070288085938 2.0204 4.621070288085938 2.0204 Q 4.598070288085937 2.0204 4.584320288085937 2.0069 Q 4.570570288085937 1.9933999999999998 4.570570288085937 1.9698999999999998 L 4.570570288085937 1.6523999999999999 M 4.817556616210938 2.0223999999999998 Q 4.7895566162109375 2.0223999999999998 4.7655566162109375 2.01165 Q 4.7415566162109375 2.0008999999999997 4.724056616210937 1.9821499999999999 Q 4.706556616210937 1.9633999999999998 4.696806616210938 1.9388999999999998 Q 4.6870566162109375 1.9143999999999999 4.6870566162109375 1.8863999999999999 Q 4.6870566162109375 1.8498999999999999 4.7038066162109375 1.8194 Q 4.720556616210938 1.7889 4.750056616210937 1.7706499999999998 Q 4.779556616210938 1.7523999999999997 4.817056616210937 1.7523999999999997 Q 4.855556616210937 1.7523999999999997 4.884306616210938 1.7709 Q 4.9130566162109375 1.7893999999999999 4.929556616210938 1.8196499999999998 Q 4.946056616210938 1.8498999999999999 4.946056616210938 1.8859 Q 4.946056616210938 1.8899 4.946056616210938 1.8936499999999998 Q 4.946056616210938 1.8973999999999998 4.945556616210938 1.8993999999999998 L 4.722556616210937 1.8993999999999998 Q 4.725056616210938 1.9273999999999998 4.738306616210938 1.94915 Q 4.751556616210937 1.9708999999999999 4.7728066162109375 1.98365 Q 4.794056616210938 1.9964 4.819056616210938 1.9964 Q 4.844556616210937 1.9964 4.8673066162109375 1.9833999999999998 Q 4.890056616210938 1.9704 4.899056616210937 1.9493999999999998 L 4.928556616210938 1.9573999999999998 Q 4.920556616210938 1.9758999999999998 4.904056616210938 1.9909 Q 4.887556616210937 2.0059 4.865306616210938 2.01415 Q 4.843056616210938 2.0223999999999998 4.817556616210938 2.0223999999999998 M 4.721556616210938 1.8748999999999998 L 4.914056616210938 1.8748999999999998 Q 4.912056616210938 1.8463999999999998 4.898806616210938 1.8249 Q 4.885556616210938 1.8034 4.864306616210937 1.7911499999999998 Q 4.843056616210938 1.7789 4.817556616210938 1.7789 Q 4.792056616210938 1.7789 4.771056616210938 1.7911499999999998 Q 4.750056616210937 1.8034 4.736806616210938 1.8251499999999998 Q 4.723556616210938 1.8468999999999998 4.721556616210938 1.8748999999999998 M 5.069055639648438 2.0174 L 4.963555639648438 1.7569 L 4.999055639648438 1.7569 L 5.088055639648438 1.9833999999999998 L 5.177555639648437 1.7569 L 5.211055639648437 1.7569 L 5.105555639648438 2.0174 L 5.069055639648438 2.0174 M 5.230565405273437 1.9424 Q 5.230565405273437 1.9179 5.244565405273438 1.9001499999999998 Q 5.258565405273438 1.8823999999999999 5.283315405273438 1.87265 Q 5.308065405273438 1.8628999999999998 5.340565405273438 1.8628999999999998 Q 5.359565405273438 1.8628999999999998 5.380065405273438 1.8659 Q 5.400565405273437 1.8688999999999998 5.416565405273437 1.8748999999999998 L 5.416565405273437 1.8528999999999998 Q 5.416565405273437 1.8198999999999999 5.3970654052734375 1.8003999999999998 Q 5.377565405273438 1.7809 5.343065405273437 1.7809 Q 5.322065405273437 1.7809 5.301815405273437 1.7886499999999999 Q 5.2815654052734375 1.7963999999999998 5.259565405273437 1.8114 L 5.246565405273437 1.7873999999999999 Q 5.2720654052734375 1.7698999999999998 5.296565405273437 1.7611499999999998 Q 5.321065405273438 1.7523999999999997 5.346565405273438 1.7523999999999997 Q 5.394565405273438 1.7523999999999997 5.4225654052734376 1.7798999999999998 Q 5.450565405273438 1.8074 5.450565405273438 1.8558999999999999 L 5.450565405273438 1.9764 Q 5.450565405273438 1.9833999999999998 5.453565405273437 1.9866499999999998 Q 5.456565405273437 1.9898999999999998 5.463065405273437 1.9904 L 5.463065405273437 2.0174 Q 5.457565405273438 2.0179 5.453565405273437 2.0183999999999997 Q 5.449565405273438 2.0189 5.447565405273438 2.0183999999999997 Q 5.435065405273438 2.0179 5.428565405273438 2.0103999999999997 Q 5.422065405273438 2.0029 5.421565405273437 1.9944 L 5.4210654052734375 1.9753999999999998 Q 5.403565405273437 1.9978999999999998 5.375565405273438 2.01015 Q 5.347565405273437 2.0223999999999998 5.3185654052734375 2.0223999999999998 Q 5.293565405273438 2.0223999999999998 5.273315405273437 2.01165 Q 5.253065405273437 2.0008999999999997 5.241815405273438 1.9826499999999998 Q 5.230565405273437 1.9644 5.230565405273437 1.9424 M 5.4050654052734375 1.9624 Q 5.410565405273438 1.9553999999999998 5.413565405273438 1.9488999999999999 Q 5.416565405273437 1.9424 5.416565405273437 1.9373999999999998 L 5.416565405273437 1.8993999999999998 Q 5.399565405273438 1.8928999999999998 5.381315405273438 1.8893999999999997 Q 5.363065405273438 1.8859 5.344565405273437 1.8859 Q 5.308065405273438 1.8859 5.285565405273438 1.9003999999999999 Q 5.263065405273438 1.9148999999999998 5.263065405273438 1.9399 Q 5.263065405273438 1.9544 5.270565405273437 1.96715 Q 5.278065405273438 1.9798999999999998 5.292565405273438 1.9881499999999999 Q 5.307065405273438 1.9964 5.3265654052734375 1.9964 Q 5.351065405273438 1.9964 5.372315405273437 1.9868999999999999 Q 5.393565405273438 1.9773999999999998 5.4050654052734375 1.9624 M 5.647042700195312 2.0048999999999997 Q 5.643042700195313 2.0063999999999997 5.634542700195313 2.0103999999999997 Q 5.626042700195312 2.0143999999999997 5.614042700195313 2.0174 Q 5.602042700195312 2.0204 5.588042700195313 2.0204 Q 5.573542700195313 2.0204 5.560792700195313 2.0149 Q 5.548042700195313 2.0094 5.540542700195313 1.9981499999999999 Q 5.533042700195312 1.9868999999999999 5.533042700195312 1.9704 L 5.533042700195312 1.7838999999999998 L 5.497042700195313 1.7838999999999998 L 5.497042700195313 1.7569 L 5.533042700195312 1.7569 L 5.533042700195312 1.6688999999999998 L 5.567042700195312 1.6688999999999998 L 5.567042700195312 1.7569 L 5.627042700195313 1.7569 L 5.627042700195313 1.7838999999999998 L 5.567042700195312 1.7838999999999998 L 5.567042700195312 1.9608999999999999 Q 5.5680427001953126 1.9748999999999999 5.577292700195312 1.9818999999999998 Q 5.586542700195313 1.9889 5.5985427001953125 1.9889 Q 5.612542700195313 1.9889 5.624042700195313 1.9841499999999999 Q 5.6355427001953124 1.9793999999999998 5.638042700195313 1.9773999999999998 L 5.647042700195312 2.0048999999999997 M 5.797567602539063 2.0223999999999998 Q 5.7695676025390625 2.0223999999999998 5.7455676025390625 2.01165 Q 5.7215676025390625 2.0008999999999997 5.704067602539062 1.9821499999999999 Q 5.686567602539062 1.9633999999999998 5.676817602539063 1.9388999999999998 Q 5.6670676025390625 1.9143999999999999 5.6670676025390625 1.8863999999999999 Q 5.6670676025390625 1.8498999999999999 5.6838176025390625 1.8194 Q 5.700567602539063 1.7889 5.730067602539062 1.7706499999999998 Q 5.759567602539063 1.7523999999999997 5.797067602539062 1.7523999999999997 Q 5.835567602539062 1.7523999999999997 5.864317602539063 1.7709 Q 5.8930676025390625 1.7893999999999999 5.909567602539063 1.8196499999999998 Q 5.926067602539063 1.8498999999999999 5.926067602539063 1.8859 Q 5.926067602539063 1.8899 5.926067602539063 1.8936499999999998 Q 5.926067602539063 1.8973999999999998 5.925567602539063 1.8993999999999998 L 5.702567602539062 1.8993999999999998 Q 5.705067602539063 1.9273999999999998 5.718317602539063 1.94915 Q 5.731567602539062 1.9708999999999999 5.7528176025390625 1.98365 Q 5.774067602539063 1.9964 5.799067602539063 1.9964 Q 5.824567602539062 1.9964 5.8473176025390625 1.9833999999999998 Q 5.870067602539063 1.9704 5.879067602539062 1.9493999999999998 L 5.908567602539063 1.9573999999999998 Q 5.900567602539063 1.9758999999999998 5.884067602539063 1.9909 Q 5.867567602539062 2.0059 5.845317602539063 2.01415 Q 5.823067602539063 2.0223999999999998 5.797567602539063 2.0223999999999998 M 5.701567602539063 1.8748999999999998 L 5.894067602539063 1.8748999999999998 Q 5.892067602539063 1.8463999999999998 5.878817602539063 1.8249 Q 5.865567602539063 1.8034 5.844317602539062 1.7911499999999998 Q 5.823067602539063 1.7789 5.797567602539063 1.7789 Q 5.772067602539063 1.7789 5.751067602539063 1.7911499999999998 Q 5.730067602539062 1.8034 5.716817602539063 1.8251499999999998 Q 5.703567602539063 1.8468999999999998 5.701567602539063 1.8748999999999998 M 6.097571020507813 1.6623999999999999 L 6.213571020507812 1.8534 L 6.330571020507812 1.6623999999999999 L 6.3685710205078125 1.6623999999999999 L 6.231071020507812 1.8853999999999997 L 6.231071020507812 2.0174 L 6.196071020507812 2.0174 L 6.196071020507812 1.8843999999999999 L 6.059071020507813 1.6623999999999999 L 6.097571020507813 1.6623999999999999 M 6.479081518554688 2.0223999999999998 Q 6.4510815185546875 2.0223999999999998 6.427331518554688 2.01165 Q 6.403581518554688 2.0008999999999997 6.386331518554687 1.9821499999999999 Q 6.369081518554688 1.9633999999999998 6.359581518554688 1.93915 Q 6.3500815185546875 1.9148999999999998 6.3500815185546875 1.8879 Q 6.3500815185546875 1.8598999999999999 6.359581518554688 1.8356499999999998 Q 6.369081518554688 1.8114 6.386581518554688 1.7926499999999999 Q 6.404081518554688 1.7738999999999998 6.4278315185546875 1.7631499999999998 Q 6.451581518554688 1.7523999999999997 6.479581518554688 1.7523999999999997 Q 6.507581518554687 1.7523999999999997 6.5310815185546875 1.7631499999999998 Q 6.554581518554688 1.7738999999999998 6.572081518554688 1.7926499999999999 Q 6.589581518554688 1.8114 6.599081518554688 1.8356499999999998 Q 6.608581518554688 1.8598999999999999 6.608581518554688 1.8879 Q 6.608581518554688 1.9148999999999998 6.599081518554688 1.93915 Q 6.589581518554688 1.9633999999999998 6.572331518554687 1.9821499999999999 Q 6.555081518554688 2.0008999999999997 6.531331518554688 2.01165 Q 6.507581518554687 2.0223999999999998 6.479081518554688 2.0223999999999998 M 6.384581518554688 1.8883999999999999 Q 6.384581518554688 1.9173999999999998 6.3973315185546875 1.94115 Q 6.410081518554688 1.9648999999999999 6.431581518554688 1.9786499999999998 Q 6.453081518554687 1.9924 6.479081518554688 1.9924 Q 6.505081518554688 1.9924 6.526581518554687 1.9784 Q 6.548081518554688 1.9644 6.561081518554688 1.9401499999999998 Q 6.574081518554688 1.9159 6.574081518554688 1.8874 Q 6.574081518554688 1.8583999999999998 6.561081518554688 1.8343999999999998 Q 6.548081518554688 1.8103999999999998 6.526581518554687 1.7963999999999998 Q 6.505081518554688 1.7823999999999998 6.479081518554688 1.7823999999999998 Q 6.453081518554687 1.7823999999999998 6.431831518554688 1.7969 Q 6.410581518554688 1.8114 6.397581518554688 1.8351499999999998 Q 6.384581518554688 1.8588999999999998 6.384581518554688 1.8883999999999999 M 6.663066870117188 1.9099 L 6.663066870117188 1.7569 L 6.697066870117188 1.7569 L 6.697066870117188 1.9039 Q 6.697066870117188 1.9484 6.712316870117188 1.9704 Q 6.727566870117188 1.9924 6.757566870117188 1.9924 Q 6.777566870117187 1.9924 6.796316870117188 1.98365 Q 6.815066870117188 1.9748999999999999 6.829566870117188 1.9586499999999998 Q 6.844066870117188 1.9424 6.851566870117187 1.9208999999999998 L 6.851566870117187 1.7569 L 6.885566870117188 1.7569 L 6.885566870117188 1.9764 Q 6.885566870117188 1.9833999999999998 6.888566870117188 1.9866499999999998 Q 6.891566870117187 1.9898999999999998 6.8975668701171875 1.9904 L 6.8975668701171875 2.0174 Q 6.891566870117187 2.0179 6.888066870117187 2.01815 Q 6.884566870117188 2.0183999999999997 6.8815668701171875 2.0183999999999997 Q 6.871566870117188 2.0174 6.864316870117188 2.0103999999999997 Q 6.857066870117188 2.0034 6.856566870117188 1.9933999999999998 L 6.855566870117188 1.9584 Q 6.838566870117187 1.9884 6.809316870117188 2.0054 Q 6.780066870117188 2.0223999999999998 6.746066870117188 2.0223999999999998 Q 6.705066870117188 2.0223999999999998 6.684066870117188 1.9938999999999998 Q 6.663066870117188 1.9653999999999998 6.663066870117188 1.9099 M 7.092563940429688 1.7869 Q 7.058563940429687 1.7878999999999998 7.032813940429688 1.8058999999999998 Q 7.0070639404296875 1.8238999999999999 6.996563940429688 1.8554 L 6.996563940429688 2.0174 L 6.962563940429687 2.0174 L 6.962563940429687 1.7569 L 6.994563940429687 1.7569 L 6.994563940429687 1.8194 Q 7.008063940429688 1.7918999999999998 7.0303139404296875 1.7749 Q 7.052563940429688 1.7578999999999998 7.0775639404296875 1.7558999999999998 Q 7.082563940429687 1.7553999999999998 7.0863139404296875 1.7553999999999998 Q 7.090063940429688 1.7553999999999998 7.092563940429688 1.7558999999999998 L 7.092563940429688 1.7869 M 7.498571997070313 1.6933999999999998 L 7.372071997070313 1.6933999999999998 L 7.372071997070313 2.0174 L 7.337071997070312 2.0174 L 7.337071997070312 1.6933999999999998 L 7.210571997070312 1.6933999999999998 L 7.210571997070312 1.6623999999999999 L 7.498571997070313 1.6623999999999999 L 7.498571997070313 1.6933999999999998 M 7.544564672851562 2.0174 L 7.544564672851562 1.7569 L 7.578564672851563 1.7569 L 7.578564672851563 2.0174 L 7.544564672851562 2.0174 M 7.544564672851562 1.7024 L 7.544564672851562 1.6523999999999999 L 7.578564672851563 1.6523999999999999 L 7.578564672851563 1.7024 L 7.544564672851562 1.7024 M 8.041073461914063 2.0174 L 8.007073461914063 2.0174 L 8.007073461914063 1.8719 Q 8.007073461914063 1.8263999999999998 7.992573461914063 1.8049 Q 7.978073461914063 1.7833999999999999 7.9495734619140626 1.7833999999999999 Q 7.920073461914063 1.7833999999999999 7.896823461914063 1.8043999999999998 Q 7.873573461914063 1.8254 7.864073461914063 1.8583999999999998 L 7.864073461914063 2.0174 L 7.830073461914063 2.0174 L 7.830073461914063 1.8719 Q 7.830073461914063 1.8258999999999999 7.816073461914063 1.8046499999999999 Q 7.802073461914063 1.7833999999999999 7.773073461914063 1.7833999999999999 Q 7.744073461914063 1.7833999999999999 7.7205734619140625 1.8038999999999998 Q 7.697073461914063 1.8243999999999998 7.687573461914063 1.8578999999999999 L 7.687573461914063 2.0174 L 7.653573461914062 2.0174 L 7.653573461914062 1.7569 L 7.684573461914063 1.7569 L 7.684573461914063 1.8158999999999998 Q 7.701073461914063 1.7853999999999999 7.726823461914063 1.7689 Q 7.7525734619140625 1.7523999999999997 7.784073461914063 1.7523999999999997 Q 7.8165734619140625 1.7523999999999997 7.836573461914063 1.7709 Q 7.856573461914063 1.7893999999999999 7.861073461914063 1.8194 Q 7.8790734619140625 1.7863999999999998 7.904323461914062 1.7693999999999999 Q 7.929573461914063 1.7523999999999997 7.961573461914063 1.7523999999999997 Q 7.983573461914062 1.7523999999999997 7.998823461914062 1.7603999999999997 Q 8.014073461914062 1.7683999999999997 8.023323461914062 1.7831499999999998 Q 8.032573461914062 1.7978999999999998 8.036823461914063 1.8186499999999999 Q 8.041073461914063 1.8394 8.041073461914063 1.8648999999999998 L 8.041073461914063 2.0174 M 8.225576635742188 2.0223999999999998 Q 8.197576635742188 2.0223999999999998 8.173576635742188 2.01165 Q 8.149576635742187 2.0008999999999997 8.132076635742187 1.9821499999999999 Q 8.114576635742187 1.9633999999999998 8.104826635742187 1.9388999999999998 Q 8.095076635742188 1.9143999999999999 8.095076635742188 1.8863999999999999 Q 8.095076635742188 1.8498999999999999 8.111826635742188 1.8194 Q 8.128576635742188 1.7889 8.158076635742187 1.7706499999999998 Q 8.187576635742188 1.7523999999999997 8.225076635742187 1.7523999999999997 Q 8.263576635742188 1.7523999999999997 8.292326635742187 1.7709 Q 8.321076635742187 1.7893999999999999 8.337576635742188 1.8196499999999998 Q 8.354076635742187 1.8498999999999999 8.354076635742187 1.8859 Q 8.354076635742187 1.8899 8.354076635742187 1.8936499999999998 Q 8.354076635742187 1.8973999999999998 8.353576635742188 1.8993999999999998 L 8.130576635742187 1.8993999999999998 Q 8.133076635742187 1.9273999999999998 8.146326635742188 1.94915 Q 8.159576635742187 1.9708999999999999 8.180826635742187 1.98365 Q 8.202076635742188 1.9964 8.227076635742188 1.9964 Q 8.252576635742187 1.9964 8.275326635742188 1.9833999999999998 Q 8.298076635742188 1.9704 8.307076635742188 1.9493999999999998 L 8.336576635742187 1.9573999999999998 Q 8.328576635742188 1.9758999999999998 8.312076635742187 1.9909 Q 8.295576635742188 2.0059 8.273326635742187 2.01415 Q 8.251076635742187 2.0223999999999998 8.225576635742188 2.0223999999999998 M 8.129576635742188 1.8748999999999998 L 8.322076635742187 1.8748999999999998 Q 8.320076635742188 1.8463999999999998 8.306826635742187 1.8249 Q 8.293576635742188 1.8034 8.272326635742187 1.7911499999999998 Q 8.251076635742187 1.7789 8.225576635742188 1.7789 Q 8.200076635742187 1.7789 8.179076635742188 1.7911499999999998 Q 8.158076635742187 1.8034 8.144826635742188 1.8251499999999998 Q 8.131576635742187 1.8468999999999998 8.129576635742188 1.8748999999999998" fill="#ba8437" fill-rule="nonzero"></path></g></g><defs><clipPath id="SvgjsClipPath1001"><path d=" M 5.55587158203125 -0.18040000000000012 h 1.3328000000000002 v 1.3328000000000002 h -1.3328000000000002 Z"></path></clipPath><clipPath id="SvgjsClipPath10005a729cc1-62f0-4ae3-a00a-aa4d79b0693a"><path d=" M 5.55587158203125 -0.18040000000000012 L 6.888671582031249 -0.18040000000000012 L 6.888671582031249 1.1524 L 5.55587158203125 1.1524 Z"></path></clipPath><linearGradient id="gradient-557f6a29-661d-4bf5-be0f-85c665dc0db3_0" x1="0" x2="1" y1="0" y2="1"><stop stop-color="#ba8437" offset="0"></stop><stop stop-color="#140e06" offset="1"></stop></linearGradient><linearGradient id="gradient-557f6a29-661d-4bf5-be0f-85c665dc0db3_1" x1="0" x2="1" y1="0" y2="1"><stop stop-color="#a57530" offset="0"></stop><stop stop-color="#000000" offset="1"></stop></linearGradient><linearGradient id="gradient-9b540b95-febb-4e12-9824-77eeaf2996a9" x1="0" x2="1" y1="0" y2="1"><stop stop-color="#ba8437" offset="0"></stop><stop stop-color="#000000" offset="1"></stop></linearGradient></defs></svg>